<svg width="339" height="97" viewBox="0 0 339 97" fill="none" xmlns="http://www.w3.org/2000/svg">
<path d="M60.1377 1.22398V16.104H62.3457V23.016H59.8497V18.36H48.3777V23.016H45.9057V16.104H47.2257C47.7537 15.144 48.2657 14.088 48.7617 12.936C49.2577 11.768 49.6977 10.544 50.0817 9.26399C50.4657 7.96799 50.7857 6.64798 51.0417 5.30398C51.3137 3.94398 51.5057 2.58398 51.6177 1.22398H60.1377ZM53.8017 3.47999C53.7217 4.39198 53.5617 5.39998 53.3217 6.50398C53.0817 7.59198 52.7857 8.71198 52.4337 9.86399C52.0977 11.016 51.7137 12.136 51.2817 13.224C50.8657 14.296 50.4257 15.256 49.9617 16.104H57.5697V3.47999H53.8017ZM76.2631 11.88C76.2631 12.952 76.1191 13.904 75.8311 14.736C75.5431 15.568 75.1351 16.272 74.6071 16.848C74.0791 17.424 73.4391 17.864 72.6871 18.168C71.9351 18.456 71.0871 18.6 70.1431 18.6C69.2791 18.6 68.4791 18.456 67.7431 18.168C67.0071 17.864 66.3671 17.424 65.8231 16.848C65.2951 16.272 64.8791 15.568 64.5751 14.736C64.2711 13.904 64.1191 12.944 64.1191 11.856C64.1191 10.432 64.3591 9.22398 64.8391 8.23198C65.3351 7.23998 66.0391 6.48798 66.9511 5.97598C67.8791 5.44798 68.9671 5.18398 70.2151 5.18398C71.3991 5.18398 72.4391 5.44798 73.3351 5.97598C74.2471 6.48798 74.9591 7.23998 75.4711 8.23198C75.9991 9.22398 76.2631 10.44 76.2631 11.88ZM66.7351 11.88C66.7351 12.84 66.8551 13.672 67.0951 14.376C67.3351 15.064 67.7111 15.592 68.2231 15.96C68.7351 16.328 69.3911 16.512 70.1911 16.512C70.9911 16.512 71.6471 16.328 72.1591 15.96C72.6711 15.592 73.0471 15.064 73.2871 14.376C73.5271 13.672 73.6471 12.84 73.6471 11.88C73.6471 10.888 73.5191 10.056 73.2631 9.38399C73.0231 8.71199 72.6471 8.19999 72.1351 7.84798C71.6391 7.47998 70.9831 7.29598 70.1671 7.29598C68.9671 7.29598 68.0951 7.69598 67.5511 8.49599C67.0071 9.29598 66.7351 10.424 66.7351 11.88ZM78.7681 10.608C78.7681 8.70398 78.9681 7.08798 79.3681 5.75998C79.7841 4.43198 80.4241 3.37598 81.2881 2.59199C82.1521 1.79199 83.2721 1.24798 84.6481 0.959985C85.6401 0.767984 86.6081 0.591984 87.5521 0.431984C88.5121 0.271985 89.4401 0.127985 90.3361 -1.57356e-05L90.6961 2.23198C90.2961 2.27998 89.8401 2.34398 89.3281 2.42398C88.8321 2.50398 88.3201 2.58398 87.7921 2.66398C87.2801 2.74398 86.7841 2.82398 86.3041 2.90398C85.8401 2.98398 85.4241 3.06398 85.0561 3.14399C84.4961 3.23998 84.0001 3.40798 83.5681 3.64798C83.1521 3.88798 82.7921 4.20798 82.4881 4.60799C82.2001 5.00798 81.9681 5.51998 81.7921 6.14399C81.6161 6.75199 81.5121 7.49599 81.4801 8.37599H81.6241C81.8481 8.07198 82.1441 7.75998 82.5121 7.43999C82.8961 7.11998 83.3521 6.85598 83.8801 6.64798C84.4241 6.42398 85.0481 6.31198 85.7521 6.31198C86.8401 6.31198 87.7601 6.55198 88.5121 7.03198C89.2641 7.49598 89.8321 8.15998 90.2161 9.02398C90.6001 9.87198 90.7921 10.888 90.7921 12.072C90.7921 13.528 90.5361 14.744 90.0241 15.72C89.5281 16.68 88.8241 17.4 87.9121 17.88C87.0161 18.36 85.9681 18.6 84.7681 18.6C83.8561 18.6 83.0321 18.432 82.2961 18.096C81.5601 17.744 80.9281 17.232 80.4001 16.56C79.8721 15.872 79.4641 15.032 79.1761 14.04C78.9041 13.048 78.7681 11.904 78.7681 10.608ZM84.9601 16.512C85.6001 16.512 86.1601 16.376 86.6401 16.104C87.1201 15.832 87.4881 15.392 87.7441 14.784C88.0161 14.176 88.1521 13.36 88.1521 12.336C88.1521 11.104 87.9281 10.128 87.4801 9.40798C87.0321 8.68798 86.2881 8.32799 85.2481 8.32799C84.6081 8.32799 84.0161 8.47998 83.4721 8.78398C82.9441 9.07199 82.4961 9.39999 82.1281 9.76799C81.7761 10.136 81.5281 10.448 81.3841 10.704C81.3841 11.456 81.4321 12.176 81.5281 12.864C81.6401 13.552 81.8241 14.168 82.0801 14.712C82.3521 15.256 82.7201 15.696 83.1841 16.032C83.6481 16.352 84.2401 16.512 84.9601 16.512ZM100.499 5.18398C102.051 5.18398 103.299 5.74398 104.243 6.86398C105.203 7.98398 105.683 9.65599 105.683 11.88C105.683 13.336 105.467 14.568 105.035 15.576C104.603 16.584 103.995 17.344 103.211 17.856C102.427 18.352 101.515 18.6 100.475 18.6C99.8188 18.6 99.2428 18.52 98.7468 18.36C98.2508 18.184 97.8268 17.96 97.4748 17.688C97.1388 17.4 96.8428 17.096 96.5868 16.776H96.4188C96.4668 17.064 96.5068 17.408 96.5388 17.808C96.5708 18.192 96.5868 18.536 96.5868 18.84V24.12H94.0428V5.42398H96.1068L96.4668 7.15199H96.5868C96.8428 6.79998 97.1468 6.47198 97.4988 6.16798C97.8508 5.86399 98.2748 5.62398 98.7708 5.44798C99.2668 5.27198 99.8428 5.18398 100.499 5.18398ZM99.8988 7.27199C99.0988 7.27199 98.4588 7.43198 97.9788 7.75198C97.4988 8.05598 97.1468 8.51999 96.9228 9.14399C96.7148 9.75199 96.6028 10.528 96.5868 11.472V11.856C96.5868 12.848 96.6908 13.696 96.8988 14.4C97.1068 15.088 97.4508 15.616 97.9308 15.984C98.4268 16.336 99.0988 16.512 99.9468 16.512C100.667 16.512 101.251 16.32 101.699 15.936C102.163 15.536 102.507 14.984 102.731 14.28C102.955 13.576 103.067 12.76 103.067 11.832C103.067 10.424 102.811 9.31199 102.299 8.49599C101.787 7.67999 100.987 7.27199 99.8988 7.27199ZM120.326 11.88C120.326 12.952 120.182 13.904 119.894 14.736C119.606 15.568 119.198 16.272 118.67 16.848C118.142 17.424 117.502 17.864 116.75 18.168C115.998 18.456 115.15 18.6 114.206 18.6C113.342 18.6 112.542 18.456 111.806 18.168C111.07 17.864 110.43 17.424 109.886 16.848C109.358 16.272 108.942 15.568 108.638 14.736C108.334 13.904 108.182 12.944 108.182 11.856C108.182 10.432 108.422 9.22398 108.902 8.23198C109.398 7.23998 110.102 6.48798 111.014 5.97598C111.942 5.44798 113.03 5.18398 114.278 5.18398C115.462 5.18398 116.502 5.44798 117.398 5.97598C118.31 6.48798 119.022 7.23998 119.534 8.23198C120.062 9.22398 120.326 10.44 120.326 11.88ZM110.798 11.88C110.798 12.84 110.918 13.672 111.158 14.376C111.398 15.064 111.774 15.592 112.286 15.96C112.798 16.328 113.454 16.512 114.254 16.512C115.054 16.512 115.71 16.328 116.222 15.96C116.734 15.592 117.11 15.064 117.35 14.376C117.59 13.672 117.71 12.84 117.71 11.88C117.71 10.888 117.582 10.056 117.326 9.38399C117.086 8.71199 116.71 8.19999 116.198 7.84798C115.702 7.47998 115.046 7.29598 114.23 7.29598C113.03 7.29598 112.158 7.69598 111.614 8.49599C111.07 9.29598 110.798 10.424 110.798 11.88ZM140.828 5.42398V18.36H138.284V7.48799H132.188V18.36H129.644V5.42398H140.828ZM156.208 11.88C156.208 12.952 156.064 13.904 155.776 14.736C155.488 15.568 155.08 16.272 154.552 16.848C154.024 17.424 153.384 17.864 152.632 18.168C151.88 18.456 151.032 18.6 150.088 18.6C149.224 18.6 148.424 18.456 147.688 18.168C146.952 17.864 146.312 17.424 145.768 16.848C145.24 16.272 144.824 15.568 144.52 14.736C144.216 13.904 144.064 12.944 144.064 11.856C144.064 10.432 144.304 9.22398 144.784 8.23198C145.28 7.23998 145.984 6.48798 146.896 5.97598C147.824 5.44798 148.912 5.18398 150.16 5.18398C151.344 5.18398 152.384 5.44798 153.28 5.97598C154.192 6.48798 154.904 7.23998 155.416 8.23198C155.944 9.22398 156.208 10.44 156.208 11.88ZM146.68 11.88C146.68 12.84 146.8 13.672 147.04 14.376C147.28 15.064 147.656 15.592 148.168 15.96C148.68 16.328 149.336 16.512 150.136 16.512C150.936 16.512 151.592 16.328 152.104 15.96C152.616 15.592 152.992 15.064 153.232 14.376C153.472 13.672 153.592 12.84 153.592 11.88C153.592 10.888 153.464 10.056 153.208 9.38399C152.968 8.71199 152.592 8.19999 152.08 7.84798C151.584 7.47998 150.928 7.29598 150.112 7.29598C148.912 7.29598 148.04 7.69598 147.496 8.49599C146.952 9.29598 146.68 10.424 146.68 11.88ZM175.333 5.42398L170.173 11.688L175.789 18.36H172.981L167.581 11.808V18.36H165.205V11.808L159.805 18.36H156.997L162.613 11.688L157.453 5.42398H160.165L165.205 11.712V5.42398H167.581V11.712L172.645 5.42398H175.333ZM182.848 5.18398C184.48 5.18398 185.696 5.54398 186.496 6.26399C187.296 6.96799 187.696 8.07999 187.696 9.59999V18.36H185.896L185.392 16.56H185.296C184.928 17.024 184.544 17.408 184.144 17.712C183.76 18.016 183.312 18.24 182.8 18.384C182.304 18.528 181.696 18.6 180.976 18.6C180.208 18.6 179.512 18.464 178.888 18.192C178.28 17.904 177.8 17.472 177.448 16.896C177.096 16.304 176.92 15.568 176.92 14.688C176.92 13.376 177.416 12.376 178.408 11.688C179.416 11 180.944 10.624 182.992 10.56L185.2 10.488V9.76799C185.2 8.80799 184.984 8.13598 184.552 7.75198C184.12 7.36798 183.512 7.17598 182.728 7.17598C182.056 7.17598 181.416 7.27198 180.808 7.46398C180.2 7.65598 179.624 7.88798 179.08 8.15999L178.264 6.31198C178.872 5.99198 179.568 5.72798 180.352 5.51998C181.152 5.29598 181.984 5.18398 182.848 5.18398ZM183.448 12.192C181.976 12.256 180.952 12.504 180.376 12.936C179.816 13.352 179.536 13.944 179.536 14.712C179.536 15.384 179.736 15.872 180.136 16.176C180.552 16.48 181.072 16.632 181.696 16.632C182.704 16.632 183.536 16.352 184.192 15.792C184.848 15.232 185.176 14.392 185.176 13.272V12.144L183.448 12.192ZM201.981 18.36H199.413V7.46398H195.765C195.605 9.44798 195.405 11.152 195.165 12.576C194.941 13.984 194.645 15.128 194.277 16.008C193.925 16.888 193.485 17.536 192.957 17.952C192.445 18.352 191.829 18.552 191.109 18.552C190.853 18.552 190.605 18.528 190.365 18.48C190.125 18.448 189.917 18.392 189.741 18.312V16.368C189.853 16.4 189.973 16.432 190.101 16.464C190.245 16.48 190.389 16.488 190.533 16.488C190.853 16.488 191.141 16.36 191.397 16.104C191.669 15.848 191.909 15.448 192.117 14.904C192.341 14.36 192.541 13.656 192.717 12.792C192.909 11.912 193.069 10.864 193.197 9.64799C193.341 8.43199 193.469 7.02398 193.581 5.42398H201.981V18.36ZM217.357 11.88C217.357 12.952 217.213 13.904 216.925 14.736C216.637 15.568 216.229 16.272 215.701 16.848C215.173 17.424 214.533 17.864 213.781 18.168C213.029 18.456 212.181 18.6 211.237 18.6C210.373 18.6 209.573 18.456 208.837 18.168C208.101 17.864 207.461 17.424 206.917 16.848C206.389 16.272 205.973 15.568 205.669 14.736C205.365 13.904 205.213 12.944 205.213 11.856C205.213 10.432 205.453 9.22398 205.933 8.23198C206.429 7.23998 207.133 6.48798 208.045 5.97598C208.973 5.44798 210.061 5.18398 211.309 5.18398C212.493 5.18398 213.533 5.44798 214.429 5.97598C215.341 6.48798 216.053 7.23998 216.565 8.23198C217.093 9.22398 217.357 10.44 217.357 11.88ZM207.829 11.88C207.829 12.84 207.949 13.672 208.189 14.376C208.429 15.064 208.805 15.592 209.317 15.96C209.829 16.328 210.485 16.512 211.285 16.512C212.085 16.512 212.741 16.328 213.253 15.96C213.765 15.592 214.141 15.064 214.381 14.376C214.621 13.672 214.741 12.84 214.741 11.88C214.741 10.888 214.613 10.056 214.357 9.38399C214.117 8.71199 213.741 8.19999 213.229 7.84798C212.733 7.47998 212.077 7.29598 211.261 7.29598C210.061 7.29598 209.189 7.69598 208.645 8.49599C208.101 9.29598 207.829 10.424 207.829 11.88ZM231.31 8.71199C231.31 9.49599 231.07 10.12 230.59 10.584C230.126 11.032 229.502 11.336 228.718 11.496V11.592C229.55 11.704 230.254 12 230.83 12.48C231.422 12.944 231.718 13.632 231.718 14.544C231.718 15.104 231.614 15.616 231.406 16.08C231.198 16.544 230.878 16.952 230.446 17.304C230.014 17.64 229.454 17.904 228.766 18.096C228.094 18.272 227.278 18.36 226.318 18.36H220.582V5.42398H226.318C227.262 5.42398 228.11 5.52798 228.862 5.73598C229.614 5.94398 230.206 6.28799 230.638 6.76799C231.086 7.24799 231.31 7.89599 231.31 8.71199ZM229.078 14.496C229.078 13.824 228.822 13.344 228.31 13.056C227.798 12.752 227.038 12.6 226.03 12.6H223.126V16.44H226.078C227.022 16.44 227.758 16.296 228.286 16.008C228.814 15.704 229.078 15.2 229.078 14.496ZM228.718 8.99998C228.718 8.43999 228.518 8.03199 228.118 7.77599C227.718 7.51998 227.07 7.39198 226.174 7.39198H223.126V10.656H225.79C226.75 10.656 227.478 10.528 227.974 10.272C228.47 9.99999 228.718 9.57599 228.718 8.99998ZM239.801 5.18398C241.433 5.18398 242.649 5.54398 243.449 6.26399C244.249 6.96799 244.649 8.07999 244.649 9.59999V18.36H242.849L242.345 16.56H242.249C241.881 17.024 241.497 17.408 241.097 17.712C240.713 18.016 240.265 18.24 239.753 18.384C239.257 18.528 238.649 18.6 237.929 18.6C237.161 18.6 236.465 18.464 235.841 18.192C235.233 17.904 234.753 17.472 234.401 16.896C234.049 16.304 233.873 15.568 233.873 14.688C233.873 13.376 234.369 12.376 235.361 11.688C236.369 11 237.897 10.624 239.945 10.56L242.153 10.488V9.76799C242.153 8.80799 241.937 8.13598 241.505 7.75198C241.073 7.36798 240.465 7.17598 239.681 7.17598C239.009 7.17598 238.369 7.27198 237.761 7.46398C237.153 7.65598 236.577 7.88798 236.033 8.15999L235.217 6.31198C235.825 5.99198 236.521 5.72798 237.305 5.51998C238.105 5.29598 238.937 5.18398 239.801 5.18398ZM240.401 12.192C238.929 12.256 237.905 12.504 237.329 12.936C236.769 13.352 236.489 13.944 236.489 14.712C236.489 15.384 236.689 15.872 237.089 16.176C237.505 16.48 238.025 16.632 238.649 16.632C239.657 16.632 240.489 16.352 241.145 15.792C241.801 15.232 242.129 14.392 242.129 13.272V12.144L240.401 12.192ZM258.022 7.46398H253.798V18.36H251.278V7.46398H247.078V5.42398H258.022V7.46398ZM266.519 10.632C267.703 10.632 268.679 10.776 269.447 11.064C270.231 11.336 270.815 11.744 271.199 12.288C271.599 12.832 271.799 13.52 271.799 14.352C271.799 15.168 271.615 15.88 271.247 16.488C270.879 17.08 270.303 17.544 269.519 17.88C268.735 18.2 267.727 18.36 266.495 18.36H260.543V5.42398H263.087V10.632H266.519ZM269.255 14.448C269.255 13.744 268.999 13.264 268.487 13.008C267.991 12.736 267.271 12.6 266.327 12.6H263.087V16.44H266.375C267.223 16.44 267.911 16.288 268.439 15.984C268.983 15.68 269.255 15.168 269.255 14.448ZM291.755 8.71199C291.755 9.49599 291.515 10.12 291.035 10.584C290.571 11.032 289.947 11.336 289.163 11.496V11.592C289.995 11.704 290.699 12 291.275 12.48C291.867 12.944 292.163 13.632 292.163 14.544C292.163 15.104 292.059 15.616 291.851 16.08C291.643 16.544 291.323 16.952 290.891 17.304C290.459 17.64 289.899 17.904 289.211 18.096C288.539 18.272 287.723 18.36 286.763 18.36H281.027V5.42398H286.763C287.707 5.42398 288.555 5.52798 289.307 5.73598C290.059 5.94398 290.651 6.28799 291.083 6.76799C291.531 7.24799 291.755 7.89599 291.755 8.71199ZM289.523 14.496C289.523 13.824 289.267 13.344 288.755 13.056C288.243 12.752 287.483 12.6 286.475 12.6H283.571V16.44H286.523C287.467 16.44 288.203 16.296 288.731 16.008C289.259 15.704 289.523 15.2 289.523 14.496ZM289.163 8.99998C289.163 8.43999 288.963 8.03199 288.563 7.77599C288.163 7.51998 287.515 7.39198 286.619 7.39198H283.571V10.656H286.235C287.195 10.656 287.923 10.528 288.419 10.272C288.915 9.99999 289.163 9.57599 289.163 8.99998Z" fill="#0B845E"/>
<path d="M255.71 96.3598C251.991 96.3822 249.25 94.0004 249.226 90.7151C249.202 87.3701 251.833 84.9435 255.535 84.9062C259.222 84.8689 261.956 87.2731 261.988 90.5733C262.012 93.9705 259.453 96.33 255.71 96.3598Z" fill="#0B845E"/>
<path d="M106.97 69.3592C106.478 72.1367 105.802 74.989 105.508 77.8785C104.976 83.0901 104.666 88.3242 104.3 93.5507C104.229 94.5363 103.792 94.947 102.767 94.932C100.963 94.9096 99.1513 94.9096 97.3475 94.932C96.2351 94.947 95.7583 94.4168 95.8298 93.4163C96.1715 88.593 96.4019 83.7621 96.9026 78.9537C97.2681 75.4444 97.9753 71.9575 98.5554 68.3288C97.7528 68.1198 96.8628 67.8958 95.9808 67.6494C89.4093 65.835 84.0457 62.4751 80.4381 56.8901C77.9272 53.0001 76.7193 48.7143 76.2346 44.2269C76.1313 43.2338 76.0678 42.2408 76.0042 41.2478C75.9486 40.3368 76.4492 39.8515 77.4027 39.844C79.2065 39.8216 81.0182 39.8291 82.822 39.844C83.8788 39.8515 84.1967 40.419 84.2443 41.3523C84.443 45.6007 85.2614 49.7073 87.7963 53.3435C90.7681 57.5845 95.1941 59.6826 100.296 60.7802C101.003 60.9295 101.138 60.5188 101.321 60.0261C102.783 55.9568 104.586 52.0443 107.233 48.5127C110.633 43.9805 114.948 40.6579 120.932 39.6872C124.531 39.1049 128.091 39.1123 131.19 41.2925C134.114 43.3533 135.187 46.2727 135.02 49.5729C134.766 54.6203 132.398 58.8389 128.528 62.2063C123.029 66.9998 116.41 69.2696 108.901 69.2173C108.393 69.2173 107.876 69.2173 107.368 69.2248C107.312 69.2323 107.24 69.2771 106.97 69.3592ZM109.45 61.3327C109.616 61.4148 109.68 61.4596 109.751 61.4746C109.863 61.4895 109.99 61.497 110.101 61.4895C115.743 61.2132 120.534 59.2869 124.102 55.0459C125.461 53.4256 126.375 51.6113 126.613 49.5356C126.812 47.766 126.121 47.0343 124.237 47.0866C121.734 47.1538 119.47 47.9303 117.507 49.3937C113.327 52.4849 111.277 56.8378 109.45 61.3327Z" fill="#0B845E"/>
<path d="M135.799 81.3205C135.974 84.2698 138.262 86.7636 141.536 87.6671C144.953 88.6078 148.298 88.1822 151.62 87.2489C155.529 86.1513 159.129 84.4789 162.331 82.0821C163.475 81.2234 163.809 81.2682 164.778 82.2912C165.875 83.4485 166.948 84.6282 168.044 85.7855C168.72 86.5023 168.72 87.1668 167.901 87.7716C160.686 93.0877 152.645 96.3506 143.332 95.7608C136.323 95.3202 131.198 92.1171 128.417 85.7631C126.748 81.9477 126.542 78.0726 127.749 74.3318C130.681 65.2526 136.768 58.8463 146.947 56.7631C151.985 55.7327 157.031 56.2479 161.37 59.1972C166.678 62.811 167.146 70.4717 162.546 74.9441C159.613 77.7963 155.855 79.1179 151.914 80.0661C146.812 81.2906 141.615 81.6192 136.371 81.3205C136.18 81.313 135.99 81.3205 135.799 81.3205ZM136.848 73.4508C139.51 73.4508 142.068 73.6151 144.587 73.4135C148.552 73.0999 152.398 72.2711 155.791 70.1506C156.832 69.501 157.452 68.5976 157.42 67.3805C157.396 66.38 156.928 65.5662 155.998 65.1107C155.283 64.7598 154.48 64.5134 153.686 64.3566C149.124 63.4606 145.175 64.7374 141.663 67.4402C139.549 69.0754 137.889 71.0466 136.848 73.4508Z" fill="#0B845E"/>
<path d="M226.607 95.8803C221.021 95.9325 216.198 94.7901 211.629 92.6249C210.898 92.2814 210.143 91.9678 209.428 91.5945C208.617 91.1689 208.482 90.5118 208.991 89.8174C210.103 88.3092 211.248 86.8234 212.424 85.3599C213.012 84.6357 213.727 84.9119 214.418 85.2853C218.192 87.3012 222.253 88.3615 226.584 88.1823C228.872 88.0852 231.184 87.7044 233.409 87.1743C234.514 86.913 235.658 86.2036 236.437 85.4047C238.264 83.5157 237.311 80.9397 234.649 80.5963C232.647 80.335 230.581 80.3723 228.546 80.447C224.383 80.6112 220.195 80.9248 216.182 79.551C209.372 77.214 207.1 71.3303 210.381 65.6483C212.336 62.2585 215.666 60.0634 219.599 58.8239C225.559 56.9498 231.51 57.353 237.43 58.9807C238.519 59.2794 239.591 59.6228 240.664 59.9738C241.602 60.2799 241.824 60.922 241.435 61.7359C240.696 63.2814 239.941 64.8195 239.162 66.3576C238.749 67.1715 238.042 67.3283 237.2 67.0222C234.426 66.0142 231.558 65.4617 228.594 65.3198C225.535 65.1705 222.499 65.3497 219.861 66.9774C218.971 67.5299 218.161 68.4333 217.716 69.3517C216.897 71.0391 217.62 72.51 219.543 72.7863C221.927 73.1298 224.383 73.2194 226.798 73.1074C230.779 72.9207 234.705 72.8834 238.59 73.9212C243.112 75.1308 246.274 79.8646 245.678 84.4565C244.971 89.8921 241.403 92.8339 236.206 94.4691C232.956 95.4995 229.587 95.8952 226.607 95.8803Z" fill="#0B845E"/>
<path d="M190.079 57.5621C194.243 57.6144 198.287 58.2043 202.149 59.7125C203.611 60.2874 203.762 60.6458 203.119 61.9748C202.451 63.3487 201.76 64.7151 201.108 66.0964C200.671 67.0371 200.028 67.2089 199.026 66.843C193.806 64.9092 188.474 64.7599 183.11 66.2009C182.101 66.4697 181.084 67.0819 180.329 67.7763C178.303 69.6355 179.034 72.2488 181.783 72.7192C184 73.1 186.305 73.1448 188.561 73.0925C191.938 73.0178 195.323 72.764 198.645 73.5554C202.753 74.5335 205.534 76.878 206.432 80.8577C207.362 84.9792 206.353 88.6378 202.968 91.5348C200.067 94.0212 196.468 95.0739 192.693 95.5593C185.947 96.4179 179.376 95.8057 173.17 92.9609C172.184 92.5055 171.223 91.9977 170.301 91.4452C169.22 90.7956 169.141 90.3178 169.912 89.377C170.913 88.145 171.978 86.9578 172.955 85.7109C173.662 84.8075 174.361 84.8075 175.371 85.3376C181.489 88.5109 187.941 89.0186 194.616 87.264C196.317 86.816 197.842 86.032 198.391 84.2549C198.867 82.7168 198.311 81.3579 196.666 81.0219C194.584 80.6038 192.415 80.5516 190.278 80.4545C186.916 80.2977 183.508 80.5217 180.194 80.0737C175.951 79.4988 172.518 77.4679 171.366 73.2792C170.19 69.0008 171.668 65.3422 175.037 62.3631C178.35 59.4288 182.459 58.1893 186.885 57.7563C187.957 57.6219 189.022 57.6144 190.079 57.5621Z" fill="#0B845E"/>
<path d="M251.296 59.9588C251.296 54.2394 251.296 48.5126 251.296 42.7932C251.296 41.0983 251.542 40.8445 253.306 40.8893C255.976 40.9565 258.646 41.0461 261.316 41.1357C262.746 41.1879 263.08 41.4941 262.985 42.8156C262.667 47.0865 262.309 51.3499 261.968 55.6207C261.523 61.1012 261.086 66.5816 260.641 72.0695C260.482 74.0556 260.331 76.0417 260.156 78.0278C260.092 78.7445 259.703 79.2075 258.877 79.1851C256.795 79.1253 254.713 79.0731 252.631 78.9611C251.566 78.9088 251.471 78.1398 251.471 77.3558C251.463 72.2636 251.447 67.164 251.431 62.0718C251.431 61.3699 251.431 60.6681 251.431 59.9662C251.391 59.9588 251.344 59.9588 251.296 59.9588Z" fill="#0B845E"/>
</svg>
