<svg width="216" height="219" viewBox="0 0 216 219" fill="none" xmlns="http://www.w3.org/2000/svg">
<path fill-rule="evenodd" clip-rule="evenodd" d="M159.918 1.92786C133.717 8.91386 114.235 28.6769 99.2987 63.4209C96.4617 70.0209 93.5587 77.3679 92.8477 79.7479C91.5747 84.0079 91.4997 84.0649 87.9867 83.4149C81.5317 82.2189 67.5227 76.4449 61.7307 72.5919C52.5407 66.4799 44.5487 57.1449 39.5157 46.6439C34.3167 35.7949 32.2557 27.9649 30.9257 14.0019C30.3897 8.38286 29.6927 3.36586 29.3757 2.85286C28.4917 1.42186 2.57069 1.66786 1.11769 3.12086C-0.450307 4.68886 -0.372308 10.9859 1.37569 23.9209C5.17369 52.0349 16.8147 75.3569 34.4887 90.2649C46.3167 100.24 60.3087 107.54 75.0917 111.447C78.5707 112.366 81.9147 113.26 82.5227 113.433C83.2947 113.652 83.0747 116.565 81.7937 123.084C77.8267 143.279 74.8097 171.173 73.3447 201.207C72.4567 219.427 72.0357 218.921 88.0727 218.921C104.262 218.921 103.416 220.05 104.24 197.335C104.598 187.482 105.598 172.671 106.464 164.421C107.912 150.613 112.189 122.796 113.497 118.671C113.974 117.17 115.374 116.921 123.354 116.921C159.404 116.921 192.104 98.3779 207.705 69.0879C213.885 57.4849 216.266 47.6029 215.703 35.8959C215.303 27.5979 214.798 25.4229 211.909 19.5539C208.109 11.8349 203.023 6.90186 194.918 3.07386C187.322 -0.51414 171.07 -1.04614 159.918 1.92786ZM184.227 31.8349C184.914 32.5249 185.382 35.6589 185.332 39.2399C185.202 48.5619 180.664 57.3659 171.013 67.0149C159.891 78.1359 146.296 84.4169 129.031 86.4109L122.644 87.1489L123.347 84.3469C124.573 79.4629 133.469 61.4719 137.844 55.0299C146.289 42.5939 156.408 34.6869 168.023 31.4509C173.998 29.7849 182.384 29.9839 184.227 31.8349Z" fill="black"/>
</svg>
